<svg width="139" height="40" viewBox="0 0 139 40" xmlns="http://www.w3.org/2000/svg">
  <g fill="none" fill-rule="evenodd">
    <rect fill="#FFF" width="139" height="40" rx="4"/>
    <path d="M20.822 18.533c0-2.198 1.78-3.978 3.978-3.978 2.197 0 3.977 1.78 3.977 3.978v6.689c0 2.197-1.78 3.978-3.977 3.978-2.198 0-3.978-1.78-3.978-3.978v-6.69zm12.044 0c0-2.198 1.78-3.978 3.978-3.978 2.197 0 3.977 1.78 3.977 3.978v6.689c0 2.197-1.78 3.978-3.977 3.978-2.198 0-3.978-1.78-3.978-3.978v-6.69zm-16.022 3.2c-2.198 0-3.978-1.78-3.978-3.978 0-2.198 1.78-3.978 3.978-3.978h6.689c2.197 0 3.977 1.78 3.977 3.978 0 2.197-1.78 3.977-3.977 3.977h-6.69zm12.044 0c-2.198 0-3.978-1.78-3.978-3.978 0-2.198 1.78-3.978 3.978-3.978h6.689c2.197 0 3.977 1.78 3.977 3.978 0 2.197-1.78 3.977-3.977 3.977h-6.69z" fill="#E01E5A"/>
    <path d="M36.844 25.222c2.198 0 3.978 1.78 3.978 3.978 0 2.197-1.78 3.977-3.978 3.977h-6.689c-2.197 0-3.977-1.78-3.977-3.977 0-2.198 1.78-3.978 3.977-3.978h6.69zm-12.044 0c2.198 0 3.978 1.78 3.978 3.978 0 2.197-1.78 3.977-3.978 3.977h-6.689c-2.197 0-3.977-1.78-3.977-3.977 0-2.198 1.78-3.978 3.977-3.978h6.69z" fill="#36C5F0"/>
    <path d="M19.022 13.533c0 2.198-1.78 3.978-3.978 3.978-2.197 0-3.977-1.78-3.977-3.978V6.844c0-2.197 1.78-3.977 3.977-3.977 2.198 0 3.978 1.78 3.978 3.977v6.69zm12.044 0c0 2.198-1.78 3.978-3.978 3.978-2.197 0-3.977-1.78-3.977-3.978V6.844c0-2.197 1.78-3.977 3.977-3.977 2.198 0 3.978 1.78 3.978 3.977v6.69z" fill="#2EB67D"/>
    <path d="M24.8 29.244c-2.198 0-3.978-1.78-3.978-3.978 0-2.197 1.78-3.977 3.978-3.977h6.689c2.197 0 3.977 1.78 3.977 3.977 0 2.198-1.78 3.978-3.977 3.978H24.8zm-12.044 0c-2.198 0-3.978-1.78-3.978-3.978 0-2.197 1.78-3.977 3.978-3.977h6.689c2.197 0 3.977 1.78 3.977 3.977 0 2.198-1.78 3.978-3.977 3.978h-6.69z" fill="#ECB22E"/>
    <text font-family="-apple-system, BlinkMacSystemFont, 'Segoe UI', Roboto, Oxygen, Ubuntu, Cantarell, 'Fira Sans', 'Droid Sans', 'Helvetica Neue', sans-serif" font-size="13" font-weight="600" fill="#000">
      <tspan x="50" y="25">Add to Slack</tspan>
    </text>
  </g>
</svg>
