<?xml version="1.0" encoding="utf-8"?><svg xmlns="http://www.w3.org/2000/svg" xmlns:xlink="http://www.w3.org/1999/xlink"><symbol stroke-linecap="round" stroke-linejoin="round" stroke-width="2" viewBox="0 0 24 24" id="icon-activity"><path d="M22 12h-2.48a2 2 0 0 0-1.93 1.46l-2.35 8.36a.25.25 0 0 1-.48 0L9.24 2.18a.25.25 0 0 0-.48 0l-2.35 8.36A2 2 0 0 1 4.49 12H2"/></symbol><symbol stroke-linecap="round" stroke-linejoin="round" stroke-width="2" viewBox="0 0 24 24" id="icon-alert-circle"><circle cx="12" cy="12" r="10"/><path d="M12 8v4m0 4h.01"/></symbol><symbol stroke-linecap="round" stroke-linejoin="round" stroke-width="2" viewBox="0 0 24 24" id="icon-alert-triangle"><path d="m21.73 18-8-14a2 2 0 0 0-3.48 0l-8 14A2 2 0 0 0 4 21h16a2 2 0 0 0 1.73-3M12 9v4m0 4h.01"/></symbol><symbol stroke-linecap="round" stroke-linejoin="round" stroke-width="2" viewBox="0 0 24 24" id="icon-arrow-left"><path d="m12 19-7-7 7-7m7 7H5"/></symbol><symbol stroke-linecap="round" stroke-linejoin="round" stroke-width="2" viewBox="0 0 24 24" id="icon-arrow-right"><path d="M5 12h14m-7-7 7 7-7 7"/></symbol><symbol stroke-linecap="round" stroke-linejoin="round" stroke-width="2" viewBox="0 0 24 24" id="icon-ban"><path d="M4.929 4.929 19.07 19.071"/><circle cx="12" cy="12" r="10"/></symbol><symbol stroke-linecap="round" stroke-linejoin="round" stroke-width="2" viewBox="0 0 24 24" id="icon-bell"><path d="M6 8a6 6 0 0 1 12 0c0 7 3 9 3 9H3s3-2 3-9"/><path d="M10.3 21a1.94 1.94 0 0 0 3.4 0"/></symbol><symbol stroke-linecap="round" stroke-linejoin="round" stroke-width="2" viewBox="0 0 24 24" id="icon-bar-chart-3"><path d="M3 3v16a2 2 0 0 0 2 2h16m-3-4V9m-5 8V5M8 17v-3"/></symbol><symbol stroke-linecap="round" stroke-linejoin="round" stroke-width="2" viewBox="0 0 24 24" id="icon-book"><path d="M4 19.5v-15A2.5 2.5 0 0 1 6.5 2H19a1 1 0 0 1 1 1v18a1 1 0 0 1-1 1H6.5a1 1 0 0 1 0-5H20"/></symbol><symbol stroke-linecap="round" stroke-linejoin="round" stroke-width="2" viewBox="0 0 24 24" id="icon-bot"><path d="M12 8V4H8"/><rect width="16" height="12" x="4" y="8" rx="2"/><path d="M2 14h2m16 0h2m-7-1v2m-6-2v2"/></symbol><symbol stroke-linecap="round" stroke-linejoin="round" stroke-width="2" viewBox="0 0 24 24" id="icon-brain"><path d="M12 18V5m3 8a4.17 4.17 0 0 1-3-4 4.17 4.17 0 0 1-3 4m8.598-6.5A3 3 0 1 0 12 5a3 3 0 1 0-5.598 1.5"/><path d="M17.997 5.125a4 4 0 0 1 2.526 5.77"/><path d="M18 18a4 4 0 0 0 2-7.464"/><path d="M19.967 17.483A4 4 0 1 1 12 18a4 4 0 1 1-7.967-.517"/><path d="M6 18a4 4 0 0 1-2-7.464"/><path d="M6.003 5.125a4 4 0 0 0-2.526 5.77"/></symbol><symbol stroke-linecap="round" stroke-linejoin="round" stroke-width="2" viewBox="0 0 24 24" id="icon-bug"><path d="m8 2 1.88 1.88m4.24 0L16 2M9 7.13v-1a3.003 3.003 0 1 1 6 0v1"/><path d="M12 20c-3.3 0-6-2.7-6-6v-3a4 4 0 0 1 4-4h4a4 4 0 0 1 4 4v3c0 3.3-2.7 6-6 6m0 0v-9"/><path d="M6.53 9C4.6 8.8 3 7.1 3 5m3 8H2m1 8c0-2.1 1.7-3.9 3.8-4M20.97 5c0 2.1-1.6 3.8-3.5 4M22 13h-4m-.8 4c2.1.1 3.8 1.9 3.8 4"/></symbol><symbol stroke-linecap="round" stroke-linejoin="round" stroke-width="2" viewBox="0 0 24 24" id="icon-calculator"><rect width="16" height="20" x="4" y="2" rx="2"/><path d="M8 6h8m0 8v4m0-8h.01M12 10h.01M8 10h.01M12 14h.01M8 14h.01M12 18h.01M8 18h.01"/></symbol><symbol stroke-linecap="round" stroke-linejoin="round" stroke-width="2" viewBox="0 0 24 24" id="icon-calendar"><path d="M8 2v4m8-4v4"/><rect width="18" height="18" x="3" y="4" rx="2"/><path d="M3 10h18"/></symbol><symbol stroke-linecap="round" stroke-linejoin="round" stroke-width="2" viewBox="0 0 24 24" id="icon-check"><path d="M20 6 9 17l-5-5"/></symbol><symbol stroke-linecap="round" stroke-linejoin="round" stroke-width="2" viewBox="0 0 24 24" id="icon-check-circle"><path d="M21.801 10A10 10 0 1 1 17 3.335"/><path d="m9 11 3 3L22 4"/></symbol><symbol stroke-linecap="round" stroke-linejoin="round" stroke-width="2" viewBox="0 0 24 24" id="icon-check-circle-2"><circle cx="12" cy="12" r="10"/><path d="m9 12 2 2 4-4"/></symbol><symbol stroke-linecap="round" stroke-linejoin="round" stroke-width="2" viewBox="0 0 24 24" id="icon-chevron-down"><path d="m6 9 6 6 6-6"/></symbol><symbol stroke-linecap="round" stroke-linejoin="round" stroke-width="2" viewBox="0 0 24 24" id="icon-chevron-left"><path d="m15 18-6-6 6-6"/></symbol><symbol stroke-linecap="round" stroke-linejoin="round" stroke-width="2" viewBox="0 0 24 24" id="icon-chevron-right"><path d="m9 18 6-6-6-6"/></symbol><symbol stroke-linecap="round" stroke-linejoin="round" stroke-width="2" viewBox="0 0 24 24" id="icon-chevron-up"><path d="m18 15-6-6-6 6"/></symbol><symbol stroke-linecap="round" stroke-linejoin="round" stroke-width="2" viewBox="0 0 24 24" id="icon-chevrons-up-down"><path d="m7 15 5 5 5-5M7 9l5-5 5 5"/></symbol><symbol stroke-linecap="round" stroke-linejoin="round" stroke-width="2" viewBox="0 0 24 24" id="icon-circle"><circle cx="12" cy="12" r="10"/></symbol><symbol stroke-linecap="round" stroke-linejoin="round" stroke-width="2" viewBox="0 0 24 24" id="icon-clock"><path d="M12 6v6l4 2"/><circle cx="12" cy="12" r="10"/></symbol><symbol stroke-linecap="round" stroke-linejoin="round" stroke-width="2" viewBox="0 0 24 24" id="icon-code"><path d="m16 18 6-6-6-6M8 6l-6 6 6 6"/></symbol><symbol stroke-linecap="round" stroke-linejoin="round" stroke-width="2" viewBox="0 0 24 24" id="icon-copy"><rect width="14" height="14" x="8" y="8" rx="2" ry="2"/><path d="M4 16c-1.1 0-2-.9-2-2V4c0-1.1.9-2 2-2h10c1.1 0 2 .9 2 2"/></symbol><symbol stroke-linecap="round" stroke-linejoin="round" stroke-width="2" viewBox="0 0 24 24" id="icon-crown"><path d="M11.562 3.266a.5.5 0 0 1 .876 0L15.39 8.87a1 1 0 0 0 1.516.294L21.183 5.5a.5.5 0 0 1 .798.519l-2.834 10.246a1 1 0 0 1-.956.734H5.81a1 1 0 0 1-.957-.734L2.02 6.02a.5.5 0 0 1 .798-.519l4.276 3.664a1 1 0 0 0 1.516-.294zM5 21h14"/></symbol><symbol stroke-linecap="round" stroke-linejoin="round" stroke-width="2" viewBox="0 0 24 24" id="icon-database"><ellipse cx="12" cy="5" rx="9" ry="3"/><path d="M3 5v14a9 3 0 0 0 18 0V5"/><path d="M3 12a9 3 0 0 0 18 0"/></symbol><symbol stroke-linecap="round" stroke-linejoin="round" stroke-width="2" viewBox="0 0 24 24" id="icon-download"><path d="M12 15V3m9 12v4a2 2 0 0 1-2 2H5a2 2 0 0 1-2-2v-4"/><path d="m7 10 5 5 5-5"/></symbol><symbol stroke-linecap="round" stroke-linejoin="round" stroke-width="2" viewBox="0 0 24 24" id="icon-external-link"><path d="M15 3h6v6m-11 5L21 3m-3 10v6a2 2 0 0 1-2 2H5a2 2 0 0 1-2-2V8a2 2 0 0 1 2-2h6"/></symbol><symbol stroke-linecap="round" stroke-linejoin="round" stroke-width="2" viewBox="0 0 24 24" id="icon-eye"><path d="M2.062 12.348a1 1 0 0 1 0-.696 10.75 10.75 0 0 1 19.876 0 1 1 0 0 1 0 .696 10.75 10.75 0 0 1-19.876 0"/><circle cx="12" cy="12" r="3"/></symbol><symbol stroke-linecap="round" stroke-linejoin="round" stroke-width="2" viewBox="0 0 24 24" id="icon-file"><path d="M15 2H6a2 2 0 0 0-2 2v16a2 2 0 0 0 2 2h12a2 2 0 0 0 2-2V7Z"/><path d="M14 2v4a2 2 0 0 0 2 2h4"/></symbol><symbol stroke-linecap="round" stroke-linejoin="round" stroke-width="2" viewBox="0 0 24 24" id="icon-file-text"><path d="M15 2H6a2 2 0 0 0-2 2v16a2 2 0 0 0 2 2h12a2 2 0 0 0 2-2V7Z"/><path d="M14 2v4a2 2 0 0 0 2 2h4M10 9H8m8 4H8m8 4H8"/></symbol><symbol stroke-linecap="round" stroke-linejoin="round" stroke-width="2" viewBox="0 0 24 24" id="icon-filter"><path d="M10 20a1 1 0 0 0 .553.895l2 1A1 1 0 0 0 14 21v-7a2 2 0 0 1 .517-1.341L21.74 4.67A1 1 0 0 0 21 3H3a1 1 0 0 0-.742 1.67l7.225 7.989A2 2 0 0 1 10 14z"/></symbol><symbol stroke-linecap="round" stroke-linejoin="round" stroke-width="2" viewBox="0 0 24 24" id="icon-git-branch"><path d="M6 3v12"/><circle cx="18" cy="6" r="3"/><circle cx="6" cy="18" r="3"/><path d="M18 9a9 9 0 0 1-9 9"/></symbol><symbol stroke-linecap="round" stroke-linejoin="round" stroke-width="2" viewBox="0 0 24 24" id="icon-git-commit"><circle cx="12" cy="12" r="3"/><path d="M3 12h6m6 0h6"/></symbol><symbol stroke-linecap="round" stroke-linejoin="round" stroke-width="2" viewBox="0 0 24 24" id="icon-git-fork"><circle cx="12" cy="18" r="3"/><circle cx="6" cy="6" r="3"/><circle cx="18" cy="6" r="3"/><path d="M18 9v2c0 .6-.4 1-1 1H7c-.6 0-1-.4-1-1V9m6 3v3"/></symbol><symbol stroke-linecap="round" stroke-linejoin="round" stroke-width="2" viewBox="0 0 24 24" id="icon-git-pull-request"><circle cx="18" cy="18" r="3"/><circle cx="6" cy="6" r="3"/><path d="M13 6h3a2 2 0 0 1 2 2v7M6 9v12"/></symbol><symbol stroke-linecap="round" stroke-linejoin="round" stroke-width="2" viewBox="0 0 24 24" id="icon-git-pull-request-draft"><circle cx="18" cy="18" r="3"/><circle cx="6" cy="6" r="3"/><path d="M18 6V5m0 6v-1M6 9v12"/></symbol><symbol stroke-linecap="round" stroke-linejoin="round" stroke-width="2" viewBox="0 0 24 24" id="icon-github"><path d="M15 22v-4a4.8 4.8 0 0 0-1-3.5c3 0 6-2 6-5.5.08-1.25-.27-2.48-1-3.5.28-1.15.28-2.35 0-3.5 0 0-1 0-3 1.5-2.64-.5-5.36-.5-8 0C6 2 5 2 5 2c-.3 1.15-.3 2.35 0 3.5A5.4 5.4 0 0 0 4 9c0 3.5 3 5.5 6 5.5-.39.49-.68 1.05-.85 1.65S8.93 17.38 9 18v4"/><path d="M9 18c-4.51 2-5-2-7-2"/></symbol><symbol stroke-linecap="round" stroke-linejoin="round" stroke-width="2" viewBox="0 0 24 24" id="icon-globe"><circle cx="12" cy="12" r="10"/><path d="M12 2a14.5 14.5 0 0 0 0 20 14.5 14.5 0 0 0 0-20M2 12h20"/></symbol><symbol stroke-linecap="round" stroke-linejoin="round" stroke-width="2" viewBox="0 0 24 24" id="icon-grip-vertical"><circle cx="9" cy="12" r="1"/><circle cx="9" cy="5" r="1"/><circle cx="9" cy="19" r="1"/><circle cx="15" cy="12" r="1"/><circle cx="15" cy="5" r="1"/><circle cx="15" cy="19" r="1"/></symbol><symbol stroke-linecap="round" stroke-linejoin="round" stroke-width="2" viewBox="0 0 24 24" id="icon-heart"><path d="M2 9.5a5.5 5.5 0 0 1 9.591-3.676.56.56 0 0 0 .818 0A5.49 5.49 0 0 1 22 9.5c0 2.29-1.5 4-3 5.5l-5.492 5.313a2 2 0 0 1-3 .019L5 15c-1.5-1.5-3-3.2-3-5.5"/></symbol><symbol stroke-linecap="round" stroke-linejoin="round" stroke-width="2" viewBox="0 0 24 24" id="icon-help-circle"><circle cx="12" cy="12" r="10"/><path d="M9.09 9a3 3 0 0 1 5.83 1c0 2-3 3-3 3m.08 4h.01"/></symbol><symbol stroke-linecap="round" stroke-linejoin="round" stroke-width="2" viewBox="0 0 24 24" id="icon-image"><rect width="18" height="18" x="3" y="3" rx="2" ry="2"/><circle cx="9" cy="9" r="2"/><path d="m21 15-3.086-3.086a2 2 0 0 0-2.828 0L6 21"/></symbol><symbol stroke-linecap="round" stroke-linejoin="round" stroke-width="2" viewBox="0 0 24 24" id="icon-info"><circle cx="12" cy="12" r="10"/><path d="M12 16v-4m0-4h.01"/></symbol><symbol stroke-linecap="round" stroke-linejoin="round" stroke-width="2" viewBox="0 0 24 24" id="icon-key"><path d="m15.5 7.5 2.3 2.3a1 1 0 0 0 1.4 0l2.1-2.1a1 1 0 0 0 0-1.4L19 4m2-2-9.6 9.6"/><circle cx="7.5" cy="15.5" r="5.5"/></symbol><symbol stroke-linecap="round" stroke-linejoin="round" stroke-width="2" viewBox="0 0 24 24" id="icon-layout"><rect width="18" height="18" x="3" y="3" rx="2"/><path d="M3 9h18M9 21V9"/></symbol><symbol stroke-linecap="round" stroke-linejoin="round" stroke-width="2" viewBox="0 0 24 24" id="icon-lightbulb"><path d="M15 14c.2-1 .7-1.7 1.5-2.5 1-.9 1.5-2.2 1.5-3.5A6 6 0 0 0 6 8c0 1 .2 2.2 1.5 3.5.7.7 1.3 1.5 1.5 2.5m0 4h6m-5 4h4"/></symbol><symbol stroke-linecap="round" stroke-linejoin="round" stroke-width="2" viewBox="0 0 24 24" id="icon-link"><path d="M10 13a5 5 0 0 0 7.54.54l3-3a5 5 0 0 0-7.07-7.07l-1.72 1.71"/><path d="M14 11a5 5 0 0 0-7.54-.54l-3 3a5 5 0 0 0 7.07 7.07l1.71-1.71"/></symbol><symbol stroke-linecap="round" stroke-linejoin="round" stroke-width="2" viewBox="0 0 24 24" id="icon-link-2"><path d="M9 17H7A5 5 0 0 1 7 7h2m6 0h2a5 5 0 1 1 0 10h-2m-7-5h8"/></symbol><symbol stroke-linecap="round" stroke-linejoin="round" stroke-width="2" viewBox="0 0 24 24" id="icon-loader-2"><path d="M21 12a9 9 0 1 1-6.219-8.56"/></symbol><symbol stroke-linecap="round" stroke-linejoin="round" stroke-width="2" viewBox="0 0 24 24" id="icon-lock"><rect width="18" height="11" x="3" y="11" rx="2" ry="2"/><path d="M7 11V7a5 5 0 0 1 10 0v4"/></symbol><symbol stroke-linecap="round" stroke-linejoin="round" stroke-width="2" viewBox="0 0 24 24" id="icon-log-in"><path d="m10 17 5-5-5-5m5 5H3m12-9h4a2 2 0 0 1 2 2v14a2 2 0 0 1-2 2h-4"/></symbol><symbol stroke-linecap="round" stroke-linejoin="round" stroke-width="2" viewBox="0 0 24 24" id="icon-log-out"><path d="m16 17 5-5-5-5m5 5H9m0 9H5a2 2 0 0 1-2-2V5a2 2 0 0 1 2-2h4"/></symbol><symbol stroke-linecap="round" stroke-linejoin="round" stroke-width="2" viewBox="0 0 24 24" id="icon-mail"><path d="m22 7-8.991 5.727a2 2 0 0 1-2.009 0L2 7"/><rect width="20" height="16" x="2" y="4" rx="2"/></symbol><symbol stroke-linecap="round" stroke-linejoin="round" stroke-width="2" viewBox="0 0 24 24" id="icon-menu"><path d="M4 12h16M4 18h16M4 6h16"/></symbol><symbol stroke-linecap="round" stroke-linejoin="round" stroke-width="2" viewBox="0 0 24 24" id="icon-message-circle"><path d="M2.992 16.342a2 2 0 0 1 .094 1.167l-1.065 3.29a1 1 0 0 0 1.236 1.168l3.413-.998a2 2 0 0 1 1.099.092 10 10 0 1 0-4.777-4.719"/></symbol><symbol stroke-linecap="round" stroke-linejoin="round" stroke-width="2" viewBox="0 0 24 24" id="icon-message-square"><path d="M22 17a2 2 0 0 1-2 2H6.828a2 2 0 0 0-1.414.586l-2.202 2.202A.71.71 0 0 1 2 21.286V5a2 2 0 0 1 2-2h16a2 2 0 0 1 2 2z"/></symbol><symbol stroke-linecap="round" stroke-linejoin="round" stroke-width="2" viewBox="0 0 24 24" id="icon-minus"><path d="M5 12h14"/></symbol><symbol stroke-linecap="round" stroke-linejoin="round" stroke-width="2" viewBox="0 0 24 24" id="icon-monitor"><rect width="20" height="14" x="2" y="3" rx="2"/><path d="M8 21h8m-4-4v4"/></symbol><symbol stroke-linecap="round" stroke-linejoin="round" stroke-width="2" viewBox="0 0 24 24" id="icon-moon"><path d="M20.985 12.486a9 9 0 1 1-9.473-9.472c.405-.022.617.46.402.803a6 6 0 0 0 8.268 8.268c.344-.215.825-.004.803.401"/></symbol><symbol stroke-linecap="round" stroke-linejoin="round" stroke-width="2" viewBox="0 0 24 24" id="icon-more-horizontal"><circle cx="12" cy="12" r="1"/><circle cx="19" cy="12" r="1"/><circle cx="5" cy="12" r="1"/></symbol><symbol stroke-linecap="round" stroke-linejoin="round" stroke-width="2" viewBox="0 0 24 24" id="icon-package"><path d="M11 21.73a2 2 0 0 0 2 0l7-4A2 2 0 0 0 21 16V8a2 2 0 0 0-1-1.73l-7-4a2 2 0 0 0-2 0l-7 4A2 2 0 0 0 3 8v8a2 2 0 0 0 1 1.73zm1 .27V12"/><path d="M3.29 7 12 12l8.71-5M7.5 4.27l9 5.15"/></symbol><symbol stroke-linecap="round" stroke-linejoin="round" stroke-width="2" viewBox="0 0 24 24" id="icon-palette"><path d="M12 22a1 1 0 0 1 0-20 10 9 0 0 1 10 9 5 5 0 0 1-5 5h-2.25a1.75 1.75 0 0 0-1.4 2.8l.3.4a1.75 1.75 0 0 1-1.4 2.8z"/><circle cx="13.5" cy="6.5" r=".5"/><circle cx="17.5" cy="10.5" r=".5"/><circle cx="6.5" cy="12.5" r=".5"/><circle cx="8.5" cy="7.5" r=".5"/></symbol><symbol stroke-linecap="round" stroke-linejoin="round" stroke-width="2" viewBox="0 0 24 24" id="icon-percent"><path d="M19 5 5 19"/><circle cx="6.5" cy="6.5" r="2.5"/><circle cx="17.5" cy="17.5" r="2.5"/></symbol><symbol stroke-linecap="round" stroke-linejoin="round" stroke-width="2" viewBox="0 0 24 24" id="icon-pie-chart"><path d="M21 12c.552 0 1.005-.449.95-.998a10 10 0 0 0-8.953-8.951c-.55-.055-.998.398-.998.95v8a1 1 0 0 0 1 1z"/><path d="M21.21 15.89A10 10 0 1 1 8 2.83"/></symbol><symbol stroke-linecap="round" stroke-linejoin="round" stroke-width="2" viewBox="0 0 24 24" id="icon-play"><path d="M5 5a2 2 0 0 1 3.008-1.728l11.997 6.998a2 2 0 0 1 .003 3.458l-12 7A2 2 0 0 1 5 19z"/></symbol><symbol stroke-linecap="round" stroke-linejoin="round" stroke-width="2" viewBox="0 0 24 24" id="icon-plus"><path d="M5 12h14m-7-7v14"/></symbol><symbol stroke-linecap="round" stroke-linejoin="round" stroke-width="2" viewBox="0 0 24 24" id="icon-refresh-cw"><path d="M3 12a9 9 0 0 1 9-9 9.75 9.75 0 0 1 6.74 2.74L21 8"/><path d="M21 3v5h-5m5 4a9 9 0 0 1-9 9 9.75 9.75 0 0 1-6.74-2.74L3 16"/><path d="M8 16H3v5"/></symbol><symbol stroke-linecap="round" stroke-linejoin="round" stroke-width="2" viewBox="0 0 24 24" id="icon-rotate-ccw"><path d="M3 12a9 9 0 1 0 9-9 9.75 9.75 0 0 0-6.74 2.74L3 8"/><path d="M3 3v5h5"/></symbol><symbol stroke-linecap="round" stroke-linejoin="round" stroke-width="2" viewBox="0 0 24 24" id="icon-rss"><path d="M4 11a9 9 0 0 1 9 9M4 4a16 16 0 0 1 16 16"/><circle cx="5" cy="19" r="1"/></symbol><symbol stroke-linecap="round" stroke-linejoin="round" stroke-width="2" viewBox="0 0 24 24" id="icon-search"><path d="m21 21-4.34-4.34"/><circle cx="11" cy="11" r="8"/></symbol><symbol stroke-linecap="round" stroke-linejoin="round" stroke-width="2" viewBox="0 0 24 24" id="icon-settings"><path d="M9.671 4.136a2.34 2.34 0 0 1 4.659 0 2.34 2.34 0 0 0 3.319 1.915 2.34 2.34 0 0 1 2.33 4.033 2.34 2.34 0 0 0 0 3.831 2.34 2.34 0 0 1-2.33 4.033 2.34 2.34 0 0 0-3.319 1.915 2.34 2.34 0 0 1-4.659 0 2.34 2.34 0 0 0-3.32-1.915 2.34 2.34 0 0 1-2.33-4.033 2.34 2.34 0 0 0 0-3.831A2.34 2.34 0 0 1 6.35 6.051a2.34 2.34 0 0 0 3.319-1.915"/><circle cx="12" cy="12" r="3"/></symbol><symbol stroke-linecap="round" stroke-linejoin="round" stroke-width="2" viewBox="0 0 24 24" id="icon-share-2"><circle cx="18" cy="5" r="3"/><circle cx="6" cy="12" r="3"/><circle cx="18" cy="19" r="3"/><path d="m8.59 13.51 6.83 3.98m-.01-10.98-6.82 3.98"/></symbol><symbol stroke-linecap="round" stroke-linejoin="round" stroke-width="2" viewBox="0 0 24 24" id="icon-shield"><path d="M20 13c0 5-3.5 7.5-7.66 8.95a1 1 0 0 1-.67-.01C7.5 20.5 4 18 4 13V6a1 1 0 0 1 1-1c2 0 4.5-1.2 6.24-2.72a1.17 1.17 0 0 1 1.52 0C14.51 3.81 17 5 19 5a1 1 0 0 1 1 1z"/></symbol><symbol stroke-linecap="round" stroke-linejoin="round" stroke-width="2" viewBox="0 0 24 24" id="icon-smartphone"><rect width="14" height="20" x="5" y="2" rx="2" ry="2"/><path d="M12 18h.01"/></symbol><symbol stroke-linecap="round" stroke-linejoin="round" stroke-width="2" viewBox="0 0 24 24" id="icon-sparkles"><path d="M11.017 2.814a1 1 0 0 1 1.966 0l1.051 5.558a2 2 0 0 0 1.594 1.594l5.558 1.051a1 1 0 0 1 0 1.966l-5.558 1.051a2 2 0 0 0-1.594 1.594l-1.051 5.558a1 1 0 0 1-1.966 0l-1.051-5.558a2 2 0 0 0-1.594-1.594l-5.558-1.051a1 1 0 0 1 0-1.966l5.558-1.051a2 2 0 0 0 1.594-1.594zM20 2v4m2-2h-4"/><circle cx="4" cy="20" r="2"/></symbol><symbol stroke-linecap="round" stroke-linejoin="round" stroke-width="2" viewBox="0 0 24 24" id="icon-star"><path d="M11.525 2.295a.53.53 0 0 1 .95 0l2.31 4.679a2.12 2.12 0 0 0 1.595 1.16l5.166.756a.53.53 0 0 1 .294.904l-3.736 3.638a2.12 2.12 0 0 0-.611 1.878l.882 5.14a.53.53 0 0 1-.771.56l-4.618-2.428a2.12 2.12 0 0 0-1.973 0L6.396 21.01a.53.53 0 0 1-.77-.56l.881-5.139a2.12 2.12 0 0 0-.611-1.879L2.16 9.795a.53.53 0 0 1 .294-.906l5.165-.755a2.12 2.12 0 0 0 1.597-1.16z"/></symbol><symbol stroke-linecap="round" stroke-linejoin="round" stroke-width="2" viewBox="0 0 24 24" id="icon-sun"><circle cx="12" cy="12" r="4"/><path d="M12 2v2m0 16v2M4.93 4.93l1.41 1.41m11.32 11.32 1.41 1.41M2 12h2m16 0h2M6.34 17.66l-1.41 1.41M19.07 4.93l-1.41 1.41"/></symbol><symbol stroke-linecap="round" stroke-linejoin="round" stroke-width="2" viewBox="0 0 24 24" id="icon-target"><circle cx="12" cy="12" r="10"/><circle cx="12" cy="12" r="6"/><circle cx="12" cy="12" r="2"/></symbol><symbol stroke-linecap="round" stroke-linejoin="round" stroke-width="2" viewBox="0 0 24 24" id="icon-terminal"><path d="M12 19h8M4 17l6-6-6-6"/></symbol><symbol stroke-linecap="round" stroke-linejoin="round" stroke-width="2" viewBox="0 0 24 24" id="icon-test-tube"><path d="M14.5 2v17.5c0 1.4-1.1 2.5-2.5 2.5s-2.5-1.1-2.5-2.5V2m-1 0h7m-1 14h-5"/></symbol><symbol stroke-linecap="round" stroke-linejoin="round" stroke-width="2" viewBox="0 0 24 24" id="icon-trash-2"><path d="M10 11v6m4-6v6m5-11v14a2 2 0 0 1-2 2H7a2 2 0 0 1-2-2V6M3 6h18M8 6V4a2 2 0 0 1 2-2h4a2 2 0 0 1 2 2v2"/></symbol><symbol stroke-linecap="round" stroke-linejoin="round" stroke-width="2" viewBox="0 0 24 24" id="icon-tree-pine"><path d="m17 14 3 3.3a1 1 0 0 1-.7 1.7H4.7a1 1 0 0 1-.7-1.7L7 14h-.3a1 1 0 0 1-.7-1.7L9 9h-.2A1 1 0 0 1 8 7.3L12 3l4 4.3a1 1 0 0 1-.8 1.7H15l3 3.3a1 1 0 0 1-.7 1.7zm-5 8v-3"/></symbol><symbol stroke-linecap="round" stroke-linejoin="round" stroke-width="2" viewBox="0 0 24 24" id="icon-trending-down"><path d="M16 17h6v-6"/><path d="m22 17-8.5-8.5-5 5L2 7"/></symbol><symbol stroke-linecap="round" stroke-linejoin="round" stroke-width="2" viewBox="0 0 24 24" id="icon-trending-up"><path d="M16 7h6v6"/><path d="m22 7-8.5 8.5-5-5L2 17"/></symbol><symbol stroke-linecap="round" stroke-linejoin="round" stroke-width="2" viewBox="0 0 24 24" id="icon-trophy"><path d="M10 14.66v1.626a2 2 0 0 1-.976 1.696A5 5 0 0 0 7 21.978m7-7.318v1.626a2 2 0 0 0 .976 1.696A5 5 0 0 1 17 21.978M18 9h1.5a1 1 0 0 0 0-5H18M4 22h16"/><path d="M6 9a6 6 0 0 0 12 0V3a1 1 0 0 0-1-1H7a1 1 0 0 0-1 1zm0 0H4.5a1 1 0 0 1 0-5H6"/></symbol><symbol stroke-linecap="round" stroke-linejoin="round" stroke-width="2" viewBox="0 0 24 24" id="icon-unlock"><rect width="18" height="11" x="3" y="11" rx="2" ry="2"/><path d="M7 11V7a5 5 0 0 1 9.9-1"/></symbol><symbol stroke-linecap="round" stroke-linejoin="round" stroke-width="2" viewBox="0 0 24 24" id="icon-upload"><path d="M12 3v12m5-7-5-5-5 5m14 7v4a2 2 0 0 1-2 2H5a2 2 0 0 1-2-2v-4"/></symbol><symbol stroke-linecap="round" stroke-linejoin="round" stroke-width="2" viewBox="0 0 24 24" id="icon-user"><path d="M19 21v-2a4 4 0 0 0-4-4H9a4 4 0 0 0-4 4v2"/><circle cx="12" cy="7" r="4"/></symbol><symbol stroke-linecap="round" stroke-linejoin="round" stroke-width="2" viewBox="0 0 24 24" id="icon-user-check"><path d="m16 11 2 2 4-4m-6 12v-2a4 4 0 0 0-4-4H6a4 4 0 0 0-4 4v2"/><circle cx="9" cy="7" r="4"/></symbol><symbol stroke-linecap="round" stroke-linejoin="round" stroke-width="2" viewBox="0 0 24 24" id="icon-user-plus"><path d="M16 21v-2a4 4 0 0 0-4-4H6a4 4 0 0 0-4 4v2"/><circle cx="9" cy="7" r="4"/><path d="M19 8v6m3-3h-6"/></symbol><symbol stroke-linecap="round" stroke-linejoin="round" stroke-width="2" viewBox="0 0 24 24" id="icon-users"><path d="M16 21v-2a4 4 0 0 0-4-4H6a4 4 0 0 0-4 4v2M16 3.128a4 4 0 0 1 0 7.744M22 21v-2a4 4 0 0 0-3-3.87"/><circle cx="9" cy="7" r="4"/></symbol><symbol stroke-linecap="round" stroke-linejoin="round" stroke-width="2" viewBox="0 0 24 24" id="icon-wifi"><path d="M12 20h.01M2 8.82a15 15 0 0 1 20 0M5 12.859a10 10 0 0 1 14 0m-10.5 3.57a5 5 0 0 1 7 0"/></symbol><symbol stroke-linecap="round" stroke-linejoin="round" stroke-width="2" viewBox="0 0 24 24" id="icon-wifi-off"><path d="M12 20h.01M8.5 16.429a5 5 0 0 1 7 0M5 12.859a10 10 0 0 1 5.17-2.69m8.83 2.69a10 10 0 0 0-2.007-1.523M2 8.82a15 15 0 0 1 4.177-2.643M22 8.82a15 15 0 0 0-11.288-3.764M2 2l20 20"/></symbol><symbol stroke-linecap="round" stroke-linejoin="round" stroke-width="2" viewBox="0 0 24 24" id="icon-x"><path d="M18 6 6 18M6 6l12 12"/></symbol><symbol stroke-linecap="round" stroke-linejoin="round" stroke-width="2" viewBox="0 0 24 24" id="icon-x-circle"><circle cx="12" cy="12" r="10"/><path d="m15 9-6 6m0-6 6 6"/></symbol><symbol stroke-linecap="round" stroke-linejoin="round" stroke-width="2" viewBox="0 0 24 24" id="icon-zap"><path d="M4 14a1 1 0 0 1-.78-1.63l9.9-10.2a.5.5 0 0 1 .86.46l-1.92 6.02A1 1 0 0 0 13 10h7a1 1 0 0 1 .78 1.63l-9.9 10.2a.5.5 0 0 1-.86-.46l1.92-6.02A1 1 0 0 0 11 14z"/></symbol></svg>